<svg width="250" height="250" viewBox="0 0 250 250" fill="none" xmlns="http://www.w3.org/2000/svg">
<path d="M250 0H0V250H250V0Z" fill="#243540"/>
<path d="M91.9154 33.6908L59.0449 25L57 32.7342L89.8705 41.425L91.9154 33.6908Z" fill="#D98236"/>
<path d="M142.966 104L110 112.323L111.958 120.079L144.924 111.757L142.966 104Z" fill="#D98236"/>
<path d="M94.8151 90.7552L74.6837 63.3558L68.2367 68.0926L88.3681 95.492L94.8151 90.7552Z" fill="#D98236"/>
<path d="M171.536 141.224L137.536 141.112L137.51 149.112L171.509 149.224L171.536 141.224Z" fill="#D98236"/>
<path d="M225.409 142.049L197.28 122.951L192.786 129.57L220.916 148.668L225.409 142.049Z" fill="#D98236"/>
<path d="M232 72L215 101.445L221.928 105.445L238.928 76L232 72Z" fill="#D98236"/>
<path d="M241.457 176L208 182.052L209.424 189.924L242.881 183.872L241.457 176Z" fill="#D98236"/>
<path d="M129.323 177L122 210.202L129.812 211.925L137.136 178.723L129.323 177Z" fill="#D98236"/>
<path d="M35.3309 5.99999L12 30.7319L17.8193 36.2216L41.1502 11.4896L35.3309 5.99999Z" fill="#D98236"/>
<path d="M40.8706 132L7 134.963L7.69725 142.933L41.5679 139.969L40.8706 132Z" fill="#D98236"/>
<path d="M37.8145 67.3011L7 81.6701L10.3809 88.9206L41.1954 74.5515L37.8145 67.3011Z" fill="#D98236"/>
<path d="M89.579 202.399L69.4468 175L63 179.737L83.1322 207.136L89.579 202.399Z" fill="#D98236"/>
<path d="M245.871 14L212 16.9633L212.697 24.9329L246.568 21.9696L245.871 14Z" fill="#D98236"/>
<path d="M195 43.3919L196.666 77.3511L204.656 76.9592L202.99 43L195 43.3919Z" fill="#D98236"/>
<path d="M171.814 219L141 233.369L144.381 240.619L175.195 226.25L171.814 219Z" fill="#D98236"/>
<path d="M165.605 38.5864L184.786 10.513L178.18 5.99999L159 34.0733L165.605 38.5864Z" fill="#D98236"/>
<path d="M243.501 234.834L213.961 218L210 224.951L239.54 241.785L243.501 234.834Z" fill="#D98236"/>
<path d="M35.9931 222L5 235.979L8.28929 243.272L39.2824 229.292L35.9931 222Z" fill="#D98236"/>
<path d="M70 230.246L100.794 244.659L104.185 237.413L73.3913 223L70 230.246Z" fill="#D98236"/>
<path d="M185.571 200.882L174.123 168.867L166.59 171.561L178.038 203.575L185.571 200.882Z" fill="#D98236"/>
<path d="M112 7.98865L116.202 41.728L124.14 40.7394L119.939 7L112 7.98865Z" fill="#D98236"/>
<path d="M143.195 58L112 71.522L115.182 78.8621L146.377 65.3401L143.195 58Z" fill="#D98236"/>
<path d="M69 141.836L93.802 165.092L99.2741 159.256L74.4721 136L69 141.836Z" fill="#D98236"/>
<path d="M38.4118 106.182L72.4099 106.536L72.4932 98.5362L38.495 98.1826L38.4118 106.182Z" fill="#D98236"/>
<path d="M186.653 104.181L167.631 76L161 80.4759L180.022 108.656L186.653 104.181Z" fill="#D98236"/>
<path d="M10 182.21L40.6443 196.939L44.1098 189.728L13.4655 175L10 182.21Z" fill="#D98236"/>
</svg>
