<svg width="250" height="250" viewBox="0 0 250 250" fill="none" xmlns="http://www.w3.org/2000/svg">
<rect width="250" height="250" fill="#EDE0C6"/>
<rect x="52.3257" y="46.7107" width="34" height="8" transform="rotate(14.8098 52.3257 46.7107)" fill="#D98236"/>
<rect x="127" y="131.106" width="34" height="8" transform="rotate(-66.1892 127 131.106)" fill="#D98236"/>
<rect x="197.28" y="122.951" width="34" height="8" transform="rotate(34.1742 197.28 122.951)" fill="#D98236"/>
<rect x="205" y="98.4449" width="34" height="8" transform="rotate(-60 205 98.4449)" fill="#D98236"/>
<rect x="205" y="188.052" width="34" height="8" transform="rotate(-10.2532 205 188.052)" fill="#D98236"/>
<rect x="131.802" y="210.092" width="34" height="8" transform="rotate(-136.842 131.802 210.092)" fill="#D98236"/>
<rect x="16.5226" y="33.732" width="34" height="8" transform="rotate(-46.6697 16.5226 33.732)" fill="#D98236"/>
<rect x="7" y="134.963" width="34" height="8" transform="rotate(-5 7 134.963)" fill="#D98236"/>
<rect x="7" y="81.6701" width="34" height="8" transform="rotate(-25 7 81.6701)" fill="#D98236"/>
<rect x="53.4468" y="156" width="34" height="8" transform="rotate(53.6921 53.4468 156)" fill="#D98236"/>
<rect x="212" y="16.9633" width="34" height="8" transform="rotate(-5 212 16.9633)" fill="#D98236"/>
<rect x="185.078" y="68.2726" width="34" height="8" transform="rotate(-92.8079 185.078 68.2726)" fill="#D98236"/>
<rect x="132" y="232.369" width="34" height="8" transform="rotate(-25 132 232.369)" fill="#D98236"/>
<rect x="172.912" y="17.7274" width="34" height="8" transform="rotate(165 172.912 17.7274)" fill="#D98236"/>
<rect x="190.686" y="224.83" width="34" height="8" transform="rotate(29.6778 190.686 224.83)" fill="#D98236"/>
<rect x="84.7939" y="239.659" width="34" height="8" transform="rotate(-154.918 84.7939 239.659)" fill="#D98236"/>
<rect x="147.216" y="156" width="34" height="8" transform="rotate(31.8021 147.216 156)" fill="#D98236"/>
<rect x="103.202" y="35.728" width="34" height="8" transform="rotate(-97.0988 103.202 35.728)" fill="#D98236"/>
<rect x="101" y="66.5221" width="34" height="8" transform="rotate(-23.4349 101 66.5221)" fill="#D98236"/>
<rect x="105.802" y="146.092" width="34" height="8" transform="rotate(-136.842 105.802 146.092)" fill="#D98236"/>
<rect x="73.9049" y="83.6741" width="34" height="8" transform="rotate(109.528 73.9049 83.6741)" fill="#D98236"/>
<rect x="152.216" y="74" width="34" height="8" transform="rotate(31.8021 152.216 74)" fill="#D98236"/>
<rect x="35.1462" y="199.736" width="34" height="8" transform="rotate(110 35.1462 199.736)" fill="#D98236"/>
</svg>
