<svg width="250" height="250" viewBox="0 0 250 250" fill="none" xmlns="http://www.w3.org/2000/svg">
<circle cx="125" cy="125" r="123" fill="#F3E9DA"/>
<circle cx="125" cy="125" r="110" fill="white"/>
<line x1="39" y1="180" x2="39" y2="77" stroke="#CC905A" stroke-width="8"/>
<line x1="80.9326" y1="219.005" x2="80.9326" y2="37.0045" stroke="#CC905A" stroke-width="8"/>
<line x1="170.5" y1="218.013" x2="170.5" y2="36.0126" stroke="#CC905A" stroke-width="8"/>
<line x1="125.5" y1="228.001" x2="125.5" y2="20.9988" stroke="#CC905A" stroke-width="8"/>
<line x1="210.5" y1="178.002" x2="210.5" y2="74.9976" stroke="#CC905A" stroke-width="8"/>
<circle cx="125.5" cy="125.5" r="37.5" fill="#F3E9DA"/>
<circle cx="125" cy="125" r="26" fill="white"/>
<path d="M99 33.2904L123.567 28.6561L128.201 53.2229L103.634 57.8571L99 33.2904Z" fill="#8B5A2E"/>
<path d="M115.087 26.0706L139.757 30.1182L135.71 54.7884L111.04 50.7408L115.087 26.0706Z" fill="#A56F3F"/>
<path d="M132.569 25L154.367 37.2412L142.126 59.0392L120.328 46.798L132.569 25Z" fill="#935F31"/>
<path d="M205.238 147.655L194.744 124.964L217.435 114.47L227.929 137.161L205.238 147.655Z" fill="#8B5A2E"/>
<path d="M194.308 133.819L192.207 108.907L217.119 106.807L219.22 131.718L194.308 133.819Z" fill="#A56F3F"/>
<path d="M189 117.128L195.546 93L219.674 99.5464L213.128 123.674L189 117.128Z" fill="#935F31"/>
<path d="M150.321 182.946L139.468 205.468L116.947 194.616L127.799 172.094L150.321 182.946Z" fill="#8B5A2E"/>
<path d="M146.582 200.179L128.681 217.63L111.23 199.729L129.131 182.278L146.582 200.179Z" fill="#A56F3F"/>
<path d="M137.067 214.883L114.277 225.16L104 202.37L126.79 192.093L137.067 214.883Z" fill="#935F31"/>
<path d="M35.743 97.7237L53.9065 114.902L36.7284 133.065L18.5649 115.887L35.743 97.7237Z" fill="#8B5A2E"/>
<path d="M51.0266 106.518L62.2194 128.872L39.865 140.065L28.6721 117.711L51.0266 106.518Z" fill="#A56F3F"/>
<path d="M62.1482 120.048L65.0203 144.883L40.1859 147.755L37.3137 122.92L62.1482 120.048Z" fill="#935F31"/>
</svg>
